<mxfile host="app.diagrams.net" modified="2021-12-01T16:36:07.364Z" agent="5.0 (Windows NT 10.0; WOW64) AppleWebKit/537.36 (KHTML, like Gecko) Chrome/96.0.4664.45 Safari/537.36" etag="6E5cAea5XFexy7P_mZZ9" version="15.8.3" type="github">
  <diagram id="G2_i2lJ-f3b6qj_kGdwk" name="Page-1">
    <mxGraphModel dx="1422" dy="762" grid="1" gridSize="10" guides="1" tooltips="1" connect="1" arrows="1" fold="1" page="1" pageScale="1" pageWidth="850" pageHeight="1100" math="0" shadow="0">
      <root>
        <mxCell id="0" />
        <mxCell id="1" parent="0" />
        <mxCell id="Q2j6FMPa0fHBLMqs2ytp-2" value="Sistema de Ar Condcionado" style="whiteSpace=wrap;aspect=fixed;imageAspect=0;html=1;verticalAlign=top;align=left;fontStyle=1" parent="1" vertex="1">
          <mxGeometry x="150" y="290" width="550" height="550" as="geometry" />
        </mxCell>
        <mxCell id="Q2j6FMPa0fHBLMqs2ytp-4" style="rounded=0;orthogonalLoop=1;jettySize=auto;html=1;endArrow=none;endFill=0;" parent="1" source="Q2j6FMPa0fHBLMqs2ytp-1" target="Q2j6FMPa0fHBLMqs2ytp-3" edge="1">
          <mxGeometry relative="1" as="geometry" />
        </mxCell>
        <mxCell id="Q2j6FMPa0fHBLMqs2ytp-30" style="rounded=0;orthogonalLoop=1;jettySize=auto;html=1;entryX=0;entryY=0.5;entryDx=0;entryDy=0;endArrow=none;endFill=0;" parent="1" source="Q2j6FMPa0fHBLMqs2ytp-1" target="Q2j6FMPa0fHBLMqs2ytp-7" edge="1">
          <mxGeometry relative="1" as="geometry" />
        </mxCell>
        <mxCell id="Q2j6FMPa0fHBLMqs2ytp-35" style="edgeStyle=none;rounded=0;orthogonalLoop=1;jettySize=auto;html=1;entryX=0;entryY=0.5;entryDx=0;entryDy=0;endArrow=none;endFill=0;" parent="1" source="Q2j6FMPa0fHBLMqs2ytp-1" target="Q2j6FMPa0fHBLMqs2ytp-34" edge="1">
          <mxGeometry relative="1" as="geometry" />
        </mxCell>
        <mxCell id="MExVswNxe_uSOec2MvRb-1" style="rounded=0;orthogonalLoop=1;jettySize=auto;html=1;exitX=1;exitY=1;exitDx=0;exitDy=0;exitPerimeter=0;endArrow=none;endFill=0;" edge="1" parent="1" source="Q2j6FMPa0fHBLMqs2ytp-1">
          <mxGeometry relative="1" as="geometry">
            <mxPoint x="380" y="680" as="targetPoint" />
          </mxGeometry>
        </mxCell>
        <mxCell id="Q2j6FMPa0fHBLMqs2ytp-1" value="Motorista/Passageiro" style="shape=umlActor;verticalLabelPosition=bottom;verticalAlign=top;html=1;outlineConnect=0;" parent="1" vertex="1">
          <mxGeometry x="50" y="470" width="30" height="60" as="geometry" />
        </mxCell>
        <mxCell id="Q2j6FMPa0fHBLMqs2ytp-3" value="Ligar o Ar Condicionado" style="ellipse;whiteSpace=wrap;html=1;" parent="1" vertex="1">
          <mxGeometry x="220" y="350" width="215" height="60" as="geometry" />
        </mxCell>
        <mxCell id="Q2j6FMPa0fHBLMqs2ytp-7" value="Escolher a temperatura" style="ellipse;whiteSpace=wrap;html=1;" parent="1" vertex="1">
          <mxGeometry x="190" y="460" width="215" height="60" as="geometry" />
        </mxCell>
        <mxCell id="Q2j6FMPa0fHBLMqs2ytp-15" value="Controle de tempertatura&lt;br&gt;(Ativação do compressor)" style="ellipse;whiteSpace=wrap;html=1;" parent="1" vertex="1">
          <mxGeometry x="455" y="410" width="215" height="60" as="geometry" />
        </mxCell>
        <mxCell id="Q2j6FMPa0fHBLMqs2ytp-23" value="Recirculação" style="ellipse;whiteSpace=wrap;html=1;" parent="1" vertex="1">
          <mxGeometry x="470" y="587.5" width="215" height="60" as="geometry" />
        </mxCell>
        <mxCell id="Q2j6FMPa0fHBLMqs2ytp-29" value="Controle da velocidade do ventilador" style="ellipse;whiteSpace=wrap;html=1;" parent="1" vertex="1">
          <mxGeometry x="380" y="650" width="215" height="60" as="geometry" />
        </mxCell>
        <mxCell id="Q2j6FMPa0fHBLMqs2ytp-34" value="Ajuste de direcionadores de ar" style="ellipse;whiteSpace=wrap;html=1;" parent="1" vertex="1">
          <mxGeometry x="230" y="527.5" width="215" height="60" as="geometry" />
        </mxCell>
        <mxCell id="Q2j6FMPa0fHBLMqs2ytp-36" value="Use" style="endArrow=open;endSize=12;dashed=1;html=1;entryX=1;entryY=0.5;entryDx=0;entryDy=0;" parent="1" source="Q2j6FMPa0fHBLMqs2ytp-15" target="Q2j6FMPa0fHBLMqs2ytp-7" edge="1">
          <mxGeometry width="160" relative="1" as="geometry">
            <mxPoint x="230" y="490" as="sourcePoint" />
            <mxPoint x="430" y="510" as="targetPoint" />
          </mxGeometry>
        </mxCell>
        <mxCell id="Q2j6FMPa0fHBLMqs2ytp-37" value="Use" style="endArrow=open;endSize=12;dashed=1;html=1;exitX=1;exitY=0.5;exitDx=0;exitDy=0;" parent="1" source="Q2j6FMPa0fHBLMqs2ytp-3" edge="1">
          <mxGeometry width="160" relative="1" as="geometry">
            <mxPoint x="487.47248297851365" y="500.1308003615295" as="sourcePoint" />
            <mxPoint x="500" y="420" as="targetPoint" />
          </mxGeometry>
        </mxCell>
        <mxCell id="Q2j6FMPa0fHBLMqs2ytp-41" value="Use" style="endArrow=open;endSize=12;dashed=1;html=1;entryX=0.227;entryY=0.09;entryDx=0;entryDy=0;entryPerimeter=0;" parent="1" source="Q2j6FMPa0fHBLMqs2ytp-15" target="Q2j6FMPa0fHBLMqs2ytp-29" edge="1">
          <mxGeometry width="160" relative="1" as="geometry">
            <mxPoint x="410" y="620" as="sourcePoint" />
            <mxPoint x="400" y="560" as="targetPoint" />
          </mxGeometry>
        </mxCell>
        <mxCell id="Q2j6FMPa0fHBLMqs2ytp-42" style="edgeStyle=none;rounded=0;orthogonalLoop=1;jettySize=auto;html=1;exitX=0.5;exitY=1;exitDx=0;exitDy=0;endArrow=none;endFill=0;" parent="1" source="Q2j6FMPa0fHBLMqs2ytp-23" target="Q2j6FMPa0fHBLMqs2ytp-23" edge="1">
          <mxGeometry relative="1" as="geometry" />
        </mxCell>
        <mxCell id="Q2j6FMPa0fHBLMqs2ytp-48" value="Diagrama de Caso de Uso - Sistema de Ar Condicionado" style="text;html=1;strokeColor=none;fillColor=none;align=center;verticalAlign=middle;whiteSpace=wrap;rounded=0;fontFamily=Helvetica;fontSize=17;fontStyle=1" parent="1" vertex="1">
          <mxGeometry x="67.5" y="210" width="700" height="20" as="geometry" />
        </mxCell>
        <mxCell id="Q2j6FMPa0fHBLMqs2ytp-49" value="Ligar ar condicionado" style="shape=table;startSize=30;container=1;collapsible=1;childLayout=tableLayout;fixedRows=1;rowLines=0;fontStyle=1;align=center;resizeLast=1;fontFamily=Helvetica;fontSize=17;html=1;" parent="1" vertex="1">
          <mxGeometry x="990" y="40" width="500" height="130" as="geometry" />
        </mxCell>
        <mxCell id="Q2j6FMPa0fHBLMqs2ytp-50" value="" style="shape=partialRectangle;collapsible=0;dropTarget=0;pointerEvents=0;fillColor=none;top=0;left=0;bottom=0;right=0;points=[[0,0.5],[1,0.5]];portConstraint=eastwest;" parent="Q2j6FMPa0fHBLMqs2ytp-49" vertex="1">
          <mxGeometry y="30" width="500" height="30" as="geometry" />
        </mxCell>
        <mxCell id="Q2j6FMPa0fHBLMqs2ytp-51" value="Descrição" style="shape=partialRectangle;connectable=0;fillColor=none;top=0;left=0;bottom=0;right=0;fontStyle=1;overflow=hidden;align=left;" parent="Q2j6FMPa0fHBLMqs2ytp-50" vertex="1">
          <mxGeometry width="150" height="30" as="geometry" />
        </mxCell>
        <mxCell id="Q2j6FMPa0fHBLMqs2ytp-52" value="Permite a ativação do ar condicionado pelo o usuário.se o veículo está ligado." style="shape=partialRectangle;connectable=0;fillColor=none;top=0;left=0;bottom=0;right=0;align=left;spacingLeft=6;fontStyle=0;overflow=hidden;whiteSpace=wrap;" parent="Q2j6FMPa0fHBLMqs2ytp-50" vertex="1">
          <mxGeometry x="150" width="350" height="30" as="geometry" />
        </mxCell>
        <mxCell id="Q2j6FMPa0fHBLMqs2ytp-53" value="" style="shape=partialRectangle;collapsible=0;dropTarget=0;pointerEvents=0;fillColor=none;top=0;left=0;bottom=1;right=0;points=[[0,0.5],[1,0.5]];portConstraint=eastwest;" parent="Q2j6FMPa0fHBLMqs2ytp-49" vertex="1">
          <mxGeometry y="60" width="500" height="30" as="geometry" />
        </mxCell>
        <mxCell id="Q2j6FMPa0fHBLMqs2ytp-54" value="" style="shape=partialRectangle;connectable=0;fillColor=none;top=0;left=0;bottom=0;right=0;fontStyle=1;overflow=hidden;" parent="Q2j6FMPa0fHBLMqs2ytp-53" vertex="1">
          <mxGeometry width="150" height="30" as="geometry" />
        </mxCell>
        <mxCell id="Q2j6FMPa0fHBLMqs2ytp-55" value="" style="shape=partialRectangle;connectable=0;fillColor=none;top=0;left=0;bottom=0;right=0;align=left;spacingLeft=6;fontStyle=5;overflow=hidden;" parent="Q2j6FMPa0fHBLMqs2ytp-53" vertex="1">
          <mxGeometry x="150" width="350" height="30" as="geometry" />
        </mxCell>
        <mxCell id="Q2j6FMPa0fHBLMqs2ytp-56" value="" style="shape=partialRectangle;collapsible=0;dropTarget=0;pointerEvents=0;fillColor=none;top=0;left=0;bottom=0;right=0;points=[[0,0.5],[1,0.5]];portConstraint=eastwest;" parent="Q2j6FMPa0fHBLMqs2ytp-49" vertex="1">
          <mxGeometry y="90" width="500" height="30" as="geometry" />
        </mxCell>
        <mxCell id="Q2j6FMPa0fHBLMqs2ytp-57" value="Ator" style="shape=partialRectangle;connectable=0;fillColor=none;top=0;left=0;bottom=0;right=0;editable=1;overflow=hidden;fontStyle=1;align=left;" parent="Q2j6FMPa0fHBLMqs2ytp-56" vertex="1">
          <mxGeometry width="150" height="30" as="geometry" />
        </mxCell>
        <mxCell id="Q2j6FMPa0fHBLMqs2ytp-58" value="Motorista/Passageiro" style="shape=partialRectangle;connectable=0;fillColor=none;top=0;left=0;bottom=0;right=0;align=left;spacingLeft=6;overflow=hidden;" parent="Q2j6FMPa0fHBLMqs2ytp-56" vertex="1">
          <mxGeometry x="150" width="350" height="30" as="geometry" />
        </mxCell>
        <mxCell id="Q2j6FMPa0fHBLMqs2ytp-62" value="&lt;h1 style=&quot;font-size: 12px&quot;&gt;Cenário Principal&lt;/h1&gt;&lt;p style=&quot;font-size: 12px&quot;&gt;&lt;font style=&quot;font-size: 12px&quot;&gt;1- O usuário liga o carro.&lt;/font&gt;&lt;/p&gt;&lt;p style=&quot;font-size: 12px&quot;&gt;&lt;font style=&quot;font-size: 12px&quot;&gt;2 - Usuário aciona o ar condicionado.&lt;/font&gt;&lt;/p&gt;&lt;p style=&quot;font-size: 12px&quot;&gt;&lt;font style=&quot;font-size: 12px&quot;&gt;3 - Funcionamento do ar condicionado.&lt;/font&gt;&lt;/p&gt;&lt;p style=&quot;font-size: 12px&quot;&gt;&lt;font style=&quot;font-size: 12px&quot;&gt;&amp;nbsp; &amp;nbsp;2.1 - [Include Caso Controle de Temperatura(Ativação do compressor)]&lt;/font&gt;&lt;/p&gt;&lt;p style=&quot;font-size: 12px&quot;&gt;&lt;font style=&quot;font-size: 12px&quot;&gt;&lt;b&gt;Cenário Alternativo&lt;/b&gt;&lt;/font&gt;&lt;/p&gt;&lt;p style=&quot;font-size: 12px&quot;&gt;2A - O usuário desliga o ar condicionado&lt;/p&gt;&lt;p style=&quot;font-size: 12px&quot;&gt;3A - Desativação do ar condicionado&lt;/p&gt;&lt;p style=&quot;font-size: 12px&quot;&gt;&amp;nbsp; &amp;nbsp;3A.1 - [Include Caso Controle de Temperatura(Ativação do compressor)]&lt;/p&gt;" style="text;html=1;strokeColor=none;fillColor=none;spacing=5;spacingTop=-20;whiteSpace=wrap;overflow=hidden;rounded=0;fontFamily=Helvetica;fontSize=17;align=left;verticalAlign=top;" parent="1" vertex="1">
          <mxGeometry x="990" y="180" width="500" height="130" as="geometry" />
        </mxCell>
        <mxCell id="Q2j6FMPa0fHBLMqs2ytp-63" value="Controle de Temperatura" style="shape=table;startSize=30;container=1;collapsible=1;childLayout=tableLayout;fixedRows=1;rowLines=0;fontStyle=1;align=center;resizeLast=1;fontFamily=Helvetica;fontSize=17;html=1;" parent="1" vertex="1">
          <mxGeometry x="990" y="310" width="500" height="130" as="geometry" />
        </mxCell>
        <mxCell id="Q2j6FMPa0fHBLMqs2ytp-64" value="" style="shape=partialRectangle;collapsible=0;dropTarget=0;pointerEvents=0;fillColor=none;top=0;left=0;bottom=0;right=0;points=[[0,0.5],[1,0.5]];portConstraint=eastwest;" parent="Q2j6FMPa0fHBLMqs2ytp-63" vertex="1">
          <mxGeometry y="30" width="500" height="30" as="geometry" />
        </mxCell>
        <mxCell id="Q2j6FMPa0fHBLMqs2ytp-65" value="Descrição" style="shape=partialRectangle;connectable=0;fillColor=none;top=0;left=0;bottom=0;right=0;fontStyle=1;overflow=hidden;align=left;" parent="Q2j6FMPa0fHBLMqs2ytp-64" vertex="1">
          <mxGeometry width="150" height="30" as="geometry" />
        </mxCell>
        <mxCell id="Q2j6FMPa0fHBLMqs2ytp-66" value="Ativa e desativa o compressor para manter a temperatura da cabine igual a temperatura escolhida." style="shape=partialRectangle;connectable=0;fillColor=none;top=0;left=0;bottom=0;right=0;align=left;spacingLeft=6;fontStyle=0;overflow=hidden;whiteSpace=wrap;" parent="Q2j6FMPa0fHBLMqs2ytp-64" vertex="1">
          <mxGeometry x="150" width="350" height="30" as="geometry" />
        </mxCell>
        <mxCell id="Q2j6FMPa0fHBLMqs2ytp-67" value="" style="shape=partialRectangle;collapsible=0;dropTarget=0;pointerEvents=0;fillColor=none;top=0;left=0;bottom=1;right=0;points=[[0,0.5],[1,0.5]];portConstraint=eastwest;" parent="Q2j6FMPa0fHBLMqs2ytp-63" vertex="1">
          <mxGeometry y="60" width="500" height="30" as="geometry" />
        </mxCell>
        <mxCell id="Q2j6FMPa0fHBLMqs2ytp-68" value="" style="shape=partialRectangle;connectable=0;fillColor=none;top=0;left=0;bottom=0;right=0;fontStyle=1;overflow=hidden;" parent="Q2j6FMPa0fHBLMqs2ytp-67" vertex="1">
          <mxGeometry width="150" height="30" as="geometry" />
        </mxCell>
        <mxCell id="Q2j6FMPa0fHBLMqs2ytp-69" value="" style="shape=partialRectangle;connectable=0;fillColor=none;top=0;left=0;bottom=0;right=0;align=left;spacingLeft=6;fontStyle=5;overflow=hidden;" parent="Q2j6FMPa0fHBLMqs2ytp-67" vertex="1">
          <mxGeometry x="150" width="350" height="30" as="geometry" />
        </mxCell>
        <mxCell id="Q2j6FMPa0fHBLMqs2ytp-70" value="" style="shape=partialRectangle;collapsible=0;dropTarget=0;pointerEvents=0;fillColor=none;top=0;left=0;bottom=0;right=0;points=[[0,0.5],[1,0.5]];portConstraint=eastwest;" parent="Q2j6FMPa0fHBLMqs2ytp-63" vertex="1">
          <mxGeometry y="90" width="500" height="30" as="geometry" />
        </mxCell>
        <mxCell id="Q2j6FMPa0fHBLMqs2ytp-71" value="Ator" style="shape=partialRectangle;connectable=0;fillColor=none;top=0;left=0;bottom=0;right=0;editable=1;overflow=hidden;fontStyle=1;align=left;" parent="Q2j6FMPa0fHBLMqs2ytp-70" vertex="1">
          <mxGeometry width="150" height="30" as="geometry" />
        </mxCell>
        <mxCell id="Q2j6FMPa0fHBLMqs2ytp-72" value="Motorista/Passageiro," style="shape=partialRectangle;connectable=0;fillColor=none;top=0;left=0;bottom=0;right=0;align=left;spacingLeft=6;overflow=hidden;" parent="Q2j6FMPa0fHBLMqs2ytp-70" vertex="1">
          <mxGeometry x="150" width="350" height="30" as="geometry" />
        </mxCell>
        <mxCell id="Q2j6FMPa0fHBLMqs2ytp-73" value="&lt;h1 style=&quot;font-size: 12px&quot;&gt;Pré condição&lt;/h1&gt;&lt;div style=&quot;font-size: 12px&quot;&gt;Veículo ligado;&lt;/div&gt;&lt;div style=&quot;font-size: 12px&quot;&gt;Ar condicionado ativado.&lt;/div&gt;&lt;h1 style=&quot;font-size: 12px&quot;&gt;Cenário Principal&lt;/h1&gt;&lt;p style=&quot;font-size: 12px&quot;&gt;&lt;font style=&quot;font-size: 12px&quot;&gt;1- Verifica temperatura da cabine.&lt;/font&gt;&lt;/p&gt;&lt;p style=&quot;font-size: 12px&quot;&gt;&lt;font style=&quot;font-size: 12px&quot;&gt;2- Verifica temperatura escolhida pelo usuário.&lt;/font&gt;&lt;/p&gt;&lt;p style=&quot;font-size: 12px&quot;&gt;&lt;font style=&quot;font-size: 12px&quot;&gt;&amp;nbsp; &amp;nbsp;2.1 - [Include Caso Escolher temperatura]&lt;/font&gt;&lt;/p&gt;&lt;p style=&quot;font-size: 12px&quot;&gt;&lt;font style=&quot;font-size: 12px&quot;&gt;3- Liga compressor, se temperatura da cabine maior que a temperatura escolhida.&lt;/font&gt;&lt;/p&gt;&lt;p style=&quot;font-size: 12px&quot;&gt;&lt;font style=&quot;font-size: 12px&quot;&gt;&amp;nbsp; &amp;nbsp;3.1 - Se temperatura da cabine é muito maior que a escolhida [Include Controle da velocidade do ventilador.&lt;/font&gt;&lt;/p&gt;&lt;p style=&quot;font-size: 12px&quot;&gt;&lt;font style=&quot;font-size: 12px&quot;&gt;&lt;b&gt;Cenário Alternativo&lt;/b&gt;&lt;/font&gt;&lt;/p&gt;&lt;p style=&quot;font-size: 12px&quot;&gt;3A - Desliga compressor, se temperatura da cabine é menor que a temperatura escolhida.&lt;/p&gt;&lt;p style=&quot;font-size: 12px&quot;&gt;&lt;br&gt;&lt;/p&gt;" style="text;html=1;strokeColor=none;fillColor=none;spacing=5;spacingTop=-20;whiteSpace=wrap;overflow=hidden;rounded=0;fontFamily=Helvetica;fontSize=17;align=left;verticalAlign=top;" parent="1" vertex="1">
          <mxGeometry x="1000" y="460" width="500" height="290" as="geometry" />
        </mxCell>
        <mxCell id="Q2j6FMPa0fHBLMqs2ytp-96" value="Recirculação" style="shape=table;startSize=30;container=1;collapsible=1;childLayout=tableLayout;fixedRows=1;rowLines=0;fontStyle=1;align=center;resizeLast=1;fontFamily=Helvetica;fontSize=17;html=1;" parent="1" vertex="1">
          <mxGeometry x="1760" y="30" width="500" height="130" as="geometry" />
        </mxCell>
        <mxCell id="Q2j6FMPa0fHBLMqs2ytp-97" value="" style="shape=partialRectangle;collapsible=0;dropTarget=0;pointerEvents=0;fillColor=none;top=0;left=0;bottom=0;right=0;points=[[0,0.5],[1,0.5]];portConstraint=eastwest;" parent="Q2j6FMPa0fHBLMqs2ytp-96" vertex="1">
          <mxGeometry y="30" width="500" height="30" as="geometry" />
        </mxCell>
        <mxCell id="Q2j6FMPa0fHBLMqs2ytp-98" value="Descrição" style="shape=partialRectangle;connectable=0;fillColor=none;top=0;left=0;bottom=0;right=0;fontStyle=1;overflow=hidden;align=left;" parent="Q2j6FMPa0fHBLMqs2ytp-97" vertex="1">
          <mxGeometry width="150" height="30" as="geometry" />
        </mxCell>
        <mxCell id="Q2j6FMPa0fHBLMqs2ytp-99" value="Ativa a recirculação e o compressor de acordo com a umidade." style="shape=partialRectangle;connectable=0;fillColor=none;top=0;left=0;bottom=0;right=0;align=left;spacingLeft=6;fontStyle=0;overflow=hidden;whiteSpace=wrap;" parent="Q2j6FMPa0fHBLMqs2ytp-97" vertex="1">
          <mxGeometry x="150" width="350" height="30" as="geometry" />
        </mxCell>
        <mxCell id="Q2j6FMPa0fHBLMqs2ytp-100" value="" style="shape=partialRectangle;collapsible=0;dropTarget=0;pointerEvents=0;fillColor=none;top=0;left=0;bottom=1;right=0;points=[[0,0.5],[1,0.5]];portConstraint=eastwest;" parent="Q2j6FMPa0fHBLMqs2ytp-96" vertex="1">
          <mxGeometry y="60" width="500" height="30" as="geometry" />
        </mxCell>
        <mxCell id="Q2j6FMPa0fHBLMqs2ytp-101" value="" style="shape=partialRectangle;connectable=0;fillColor=none;top=0;left=0;bottom=0;right=0;fontStyle=1;overflow=hidden;" parent="Q2j6FMPa0fHBLMqs2ytp-100" vertex="1">
          <mxGeometry width="150" height="30" as="geometry" />
        </mxCell>
        <mxCell id="Q2j6FMPa0fHBLMqs2ytp-102" value="" style="shape=partialRectangle;connectable=0;fillColor=none;top=0;left=0;bottom=0;right=0;align=left;spacingLeft=6;fontStyle=5;overflow=hidden;" parent="Q2j6FMPa0fHBLMqs2ytp-100" vertex="1">
          <mxGeometry x="150" width="350" height="30" as="geometry" />
        </mxCell>
        <mxCell id="Q2j6FMPa0fHBLMqs2ytp-103" value="" style="shape=partialRectangle;collapsible=0;dropTarget=0;pointerEvents=0;fillColor=none;top=0;left=0;bottom=0;right=0;points=[[0,0.5],[1,0.5]];portConstraint=eastwest;" parent="Q2j6FMPa0fHBLMqs2ytp-96" vertex="1">
          <mxGeometry y="90" width="500" height="30" as="geometry" />
        </mxCell>
        <mxCell id="Q2j6FMPa0fHBLMqs2ytp-104" value="Ator" style="shape=partialRectangle;connectable=0;fillColor=none;top=0;left=0;bottom=0;right=0;editable=1;overflow=hidden;fontStyle=1;align=left;" parent="Q2j6FMPa0fHBLMqs2ytp-103" vertex="1">
          <mxGeometry width="150" height="30" as="geometry" />
        </mxCell>
        <mxCell id="Q2j6FMPa0fHBLMqs2ytp-105" value="Umidade" style="shape=partialRectangle;connectable=0;fillColor=none;top=0;left=0;bottom=0;right=0;align=left;spacingLeft=6;overflow=hidden;" parent="Q2j6FMPa0fHBLMqs2ytp-103" vertex="1">
          <mxGeometry x="150" width="350" height="30" as="geometry" />
        </mxCell>
        <mxCell id="Q2j6FMPa0fHBLMqs2ytp-106" value="&lt;h1 style=&quot;font-size: 12px&quot;&gt;Pré condição&lt;/h1&gt;&lt;div style=&quot;font-size: 12px&quot;&gt;Veículo ligado;&lt;/div&gt;&lt;div style=&quot;font-size: 12px&quot;&gt;Compressor desativado.&lt;/div&gt;&lt;h1 style=&quot;font-size: 12px&quot;&gt;Cenário Principal&lt;/h1&gt;&lt;p style=&quot;font-size: 12px&quot;&gt;&lt;font style=&quot;font-size: 12px&quot;&gt;1- Verifica se compressor está desligado.&lt;/font&gt;&lt;/p&gt;&lt;p style=&quot;font-size: 12px&quot;&gt;&lt;font style=&quot;font-size: 12px&quot;&gt;2 - Verifica umidade se a umidade está adequada (&amp;gt;80%).&lt;/font&gt;&lt;/p&gt;&lt;p style=&quot;font-size: 12px&quot;&gt;&lt;font style=&quot;font-size: 12px&quot;&gt;&amp;nbsp; &amp;nbsp;2.1 - Ativa recirculador&lt;/font&gt;&lt;/p&gt;&lt;p style=&quot;font-size: 12px&quot;&gt;&lt;font style=&quot;font-size: 12px&quot;&gt;&amp;nbsp; &amp;nbsp;2.1 - [Include Caso Controle de Temperatura]&lt;/font&gt;&lt;/p&gt;&lt;p style=&quot;font-size: 12px&quot;&gt;&lt;br&gt;&lt;/p&gt;" style="text;html=1;strokeColor=none;fillColor=none;spacing=5;spacingTop=-20;whiteSpace=wrap;overflow=hidden;rounded=0;fontFamily=Helvetica;fontSize=17;align=left;verticalAlign=top;" parent="1" vertex="1">
          <mxGeometry x="1760" y="170" width="500" height="190" as="geometry" />
        </mxCell>
        <mxCell id="Q2j6FMPa0fHBLMqs2ytp-107" value="Use" style="endArrow=open;endSize=12;dashed=1;html=1;exitX=0.5;exitY=0;exitDx=0;exitDy=0;entryX=0.5;entryY=1;entryDx=0;entryDy=0;" parent="1" source="Q2j6FMPa0fHBLMqs2ytp-23" target="Q2j6FMPa0fHBLMqs2ytp-15" edge="1">
          <mxGeometry width="160" relative="1" as="geometry">
            <mxPoint x="534.6004453738606" y="478.07374416751054" as="sourcePoint" />
            <mxPoint x="410" y="570" as="targetPoint" />
          </mxGeometry>
        </mxCell>
        <mxCell id="Q2j6FMPa0fHBLMqs2ytp-114" value="Controle da velocidade do Ventilador" style="shape=table;startSize=30;container=1;collapsible=1;childLayout=tableLayout;fixedRows=1;rowLines=0;fontStyle=1;align=center;resizeLast=1;fontFamily=Helvetica;fontSize=17;html=1;" parent="1" vertex="1">
          <mxGeometry x="1770" y="370" width="500" height="130" as="geometry" />
        </mxCell>
        <mxCell id="Q2j6FMPa0fHBLMqs2ytp-115" value="" style="shape=partialRectangle;collapsible=0;dropTarget=0;pointerEvents=0;fillColor=none;top=0;left=0;bottom=0;right=0;points=[[0,0.5],[1,0.5]];portConstraint=eastwest;" parent="Q2j6FMPa0fHBLMqs2ytp-114" vertex="1">
          <mxGeometry y="30" width="500" height="30" as="geometry" />
        </mxCell>
        <mxCell id="Q2j6FMPa0fHBLMqs2ytp-116" value="Descrição" style="shape=partialRectangle;connectable=0;fillColor=none;top=0;left=0;bottom=0;right=0;fontStyle=1;overflow=hidden;align=left;" parent="Q2j6FMPa0fHBLMqs2ytp-115" vertex="1">
          <mxGeometry width="150" height="30" as="geometry" />
        </mxCell>
        <mxCell id="Q2j6FMPa0fHBLMqs2ytp-117" value="Aumenta a velocidade do ventilador de acordo com as condições de temperatura e escolha do usuário" style="shape=partialRectangle;connectable=0;fillColor=none;top=0;left=0;bottom=0;right=0;align=left;spacingLeft=6;fontStyle=0;overflow=hidden;whiteSpace=wrap;" parent="Q2j6FMPa0fHBLMqs2ytp-115" vertex="1">
          <mxGeometry x="150" width="350" height="30" as="geometry" />
        </mxCell>
        <mxCell id="Q2j6FMPa0fHBLMqs2ytp-118" value="" style="shape=partialRectangle;collapsible=0;dropTarget=0;pointerEvents=0;fillColor=none;top=0;left=0;bottom=1;right=0;points=[[0,0.5],[1,0.5]];portConstraint=eastwest;" parent="Q2j6FMPa0fHBLMqs2ytp-114" vertex="1">
          <mxGeometry y="60" width="500" height="30" as="geometry" />
        </mxCell>
        <mxCell id="Q2j6FMPa0fHBLMqs2ytp-119" value="" style="shape=partialRectangle;connectable=0;fillColor=none;top=0;left=0;bottom=0;right=0;fontStyle=1;overflow=hidden;" parent="Q2j6FMPa0fHBLMqs2ytp-118" vertex="1">
          <mxGeometry width="150" height="30" as="geometry" />
        </mxCell>
        <mxCell id="Q2j6FMPa0fHBLMqs2ytp-120" value="" style="shape=partialRectangle;connectable=0;fillColor=none;top=0;left=0;bottom=0;right=0;align=left;spacingLeft=6;fontStyle=5;overflow=hidden;" parent="Q2j6FMPa0fHBLMqs2ytp-118" vertex="1">
          <mxGeometry x="150" width="350" height="30" as="geometry" />
        </mxCell>
        <mxCell id="Q2j6FMPa0fHBLMqs2ytp-121" value="" style="shape=partialRectangle;collapsible=0;dropTarget=0;pointerEvents=0;fillColor=none;top=0;left=0;bottom=0;right=0;points=[[0,0.5],[1,0.5]];portConstraint=eastwest;" parent="Q2j6FMPa0fHBLMqs2ytp-114" vertex="1">
          <mxGeometry y="90" width="500" height="30" as="geometry" />
        </mxCell>
        <mxCell id="Q2j6FMPa0fHBLMqs2ytp-122" value="Ator" style="shape=partialRectangle;connectable=0;fillColor=none;top=0;left=0;bottom=0;right=0;editable=1;overflow=hidden;fontStyle=1;align=left;" parent="Q2j6FMPa0fHBLMqs2ytp-121" vertex="1">
          <mxGeometry width="150" height="30" as="geometry" />
        </mxCell>
        <mxCell id="Q2j6FMPa0fHBLMqs2ytp-123" value="Motorista/Passageiro" style="shape=partialRectangle;connectable=0;fillColor=none;top=0;left=0;bottom=0;right=0;align=left;spacingLeft=6;overflow=hidden;" parent="Q2j6FMPa0fHBLMqs2ytp-121" vertex="1">
          <mxGeometry x="150" width="350" height="30" as="geometry" />
        </mxCell>
        <mxCell id="Q2j6FMPa0fHBLMqs2ytp-124" value="&lt;h1 style=&quot;font-size: 12px&quot;&gt;Pré condição&lt;/h1&gt;&lt;div style=&quot;font-size: 12px&quot;&gt;Veículo ligado;&lt;/div&gt;&lt;div style=&quot;font-size: 12px&quot;&gt;Compressor ativado;&lt;/div&gt;&lt;div style=&quot;font-size: 12px&quot;&gt;Temperatura da cabine &amp;gt;&amp;gt; Temperatura Escolhida&lt;/div&gt;&lt;h1 style=&quot;font-size: 12px&quot;&gt;Cenário Principal&lt;/h1&gt;&lt;p style=&quot;font-size: 12px&quot;&gt;&lt;font style=&quot;font-size: 12px&quot;&gt;1- Verifica a velocidade escolhida pelo usuário;&lt;/font&gt;&lt;/p&gt;&lt;p style=&quot;font-size: 12px&quot;&gt;&lt;font style=&quot;font-size: 12px&quot;&gt;2 - Aciona o ventilador na velocidade desejada.&lt;/font&gt;&lt;/p&gt;&lt;p style=&quot;font-size: 12px&quot;&gt;&lt;b&gt;Cenário Alternativo&lt;/b&gt;&lt;/p&gt;&lt;p style=&quot;font-size: 12px&quot;&gt;2A -&amp;nbsp; Verifica se a temperatura da cabine é muito maior que a temperatura escolhida;&lt;/p&gt;&lt;p style=&quot;font-size: 12px&quot;&gt;&lt;span style=&quot;white-space: pre&quot;&gt; &lt;/span&gt;2A.1 - Aumenta a velocidade do ventilador&lt;br&gt;&lt;/p&gt;&lt;p style=&quot;font-size: 12px&quot;&gt;&lt;br&gt;&lt;/p&gt;" style="text;html=1;strokeColor=none;fillColor=none;spacing=5;spacingTop=-20;whiteSpace=wrap;overflow=hidden;rounded=0;fontFamily=Helvetica;fontSize=17;align=left;verticalAlign=top;" parent="1" vertex="1">
          <mxGeometry x="1770" y="510" width="500" height="190" as="geometry" />
        </mxCell>
        <mxCell id="Q2j6FMPa0fHBLMqs2ytp-125" value="Ajuste dos direcionadores de ar" style="shape=table;startSize=30;container=1;collapsible=1;childLayout=tableLayout;fixedRows=1;rowLines=0;fontStyle=1;align=center;resizeLast=1;fontFamily=Helvetica;fontSize=17;html=1;" parent="1" vertex="1">
          <mxGeometry x="1000" y="750" width="500" height="130" as="geometry" />
        </mxCell>
        <mxCell id="Q2j6FMPa0fHBLMqs2ytp-126" value="" style="shape=partialRectangle;collapsible=0;dropTarget=0;pointerEvents=0;fillColor=none;top=0;left=0;bottom=0;right=0;points=[[0,0.5],[1,0.5]];portConstraint=eastwest;" parent="Q2j6FMPa0fHBLMqs2ytp-125" vertex="1">
          <mxGeometry y="30" width="500" height="30" as="geometry" />
        </mxCell>
        <mxCell id="Q2j6FMPa0fHBLMqs2ytp-127" value="Descrição" style="shape=partialRectangle;connectable=0;fillColor=none;top=0;left=0;bottom=0;right=0;fontStyle=1;overflow=hidden;align=left;" parent="Q2j6FMPa0fHBLMqs2ytp-126" vertex="1">
          <mxGeometry width="150" height="30" as="geometry" />
        </mxCell>
        <mxCell id="Q2j6FMPa0fHBLMqs2ytp-128" value="Altera a direção da saída de ar" style="shape=partialRectangle;connectable=0;fillColor=none;top=0;left=0;bottom=0;right=0;align=left;spacingLeft=6;fontStyle=0;overflow=hidden;whiteSpace=wrap;" parent="Q2j6FMPa0fHBLMqs2ytp-126" vertex="1">
          <mxGeometry x="150" width="350" height="30" as="geometry" />
        </mxCell>
        <mxCell id="Q2j6FMPa0fHBLMqs2ytp-129" value="" style="shape=partialRectangle;collapsible=0;dropTarget=0;pointerEvents=0;fillColor=none;top=0;left=0;bottom=1;right=0;points=[[0,0.5],[1,0.5]];portConstraint=eastwest;" parent="Q2j6FMPa0fHBLMqs2ytp-125" vertex="1">
          <mxGeometry y="60" width="500" height="30" as="geometry" />
        </mxCell>
        <mxCell id="Q2j6FMPa0fHBLMqs2ytp-130" value="" style="shape=partialRectangle;connectable=0;fillColor=none;top=0;left=0;bottom=0;right=0;fontStyle=1;overflow=hidden;" parent="Q2j6FMPa0fHBLMqs2ytp-129" vertex="1">
          <mxGeometry width="150" height="30" as="geometry" />
        </mxCell>
        <mxCell id="Q2j6FMPa0fHBLMqs2ytp-131" value="" style="shape=partialRectangle;connectable=0;fillColor=none;top=0;left=0;bottom=0;right=0;align=left;spacingLeft=6;fontStyle=5;overflow=hidden;" parent="Q2j6FMPa0fHBLMqs2ytp-129" vertex="1">
          <mxGeometry x="150" width="350" height="30" as="geometry" />
        </mxCell>
        <mxCell id="Q2j6FMPa0fHBLMqs2ytp-132" value="" style="shape=partialRectangle;collapsible=0;dropTarget=0;pointerEvents=0;fillColor=none;top=0;left=0;bottom=0;right=0;points=[[0,0.5],[1,0.5]];portConstraint=eastwest;" parent="Q2j6FMPa0fHBLMqs2ytp-125" vertex="1">
          <mxGeometry y="90" width="500" height="30" as="geometry" />
        </mxCell>
        <mxCell id="Q2j6FMPa0fHBLMqs2ytp-133" value="Ator" style="shape=partialRectangle;connectable=0;fillColor=none;top=0;left=0;bottom=0;right=0;editable=1;overflow=hidden;fontStyle=1;align=left;" parent="Q2j6FMPa0fHBLMqs2ytp-132" vertex="1">
          <mxGeometry width="150" height="30" as="geometry" />
        </mxCell>
        <mxCell id="Q2j6FMPa0fHBLMqs2ytp-134" value="Motorista/ Passageiro" style="shape=partialRectangle;connectable=0;fillColor=none;top=0;left=0;bottom=0;right=0;align=left;spacingLeft=6;overflow=hidden;" parent="Q2j6FMPa0fHBLMqs2ytp-132" vertex="1">
          <mxGeometry x="150" width="350" height="30" as="geometry" />
        </mxCell>
        <mxCell id="Q2j6FMPa0fHBLMqs2ytp-135" value="&lt;h1 style=&quot;font-size: 12px&quot;&gt;Pré condição&lt;/h1&gt;&lt;div style=&quot;font-size: 12px&quot;&gt;Veículo ligado;&lt;/div&gt;&lt;div style=&quot;font-size: 12px&quot;&gt;&lt;br&gt;&lt;/div&gt;&lt;h1 style=&quot;font-size: 12px&quot;&gt;Cenário Principal&lt;/h1&gt;&lt;p style=&quot;font-size: 12px&quot;&gt;&lt;font style=&quot;font-size: 12px&quot;&gt;1- Usuário escolhe&amp;nbsp; a saída de ar desejada;&lt;/font&gt;&lt;/p&gt;&lt;p style=&quot;font-size: 12px&quot;&gt;&lt;font style=&quot;font-size: 12px&quot;&gt;&amp;nbsp; &amp;nbsp; 1.1- Os direcionadores de ar são ativados, permitindo a saída de ar&lt;/font&gt;&lt;/p&gt;&lt;p style=&quot;font-size: 12px&quot;&gt;&lt;br&gt;&lt;/p&gt;" style="text;html=1;strokeColor=none;fillColor=none;spacing=5;spacingTop=-20;whiteSpace=wrap;overflow=hidden;rounded=0;fontFamily=Helvetica;fontSize=17;align=left;verticalAlign=top;" parent="1" vertex="1">
          <mxGeometry x="1000" y="890" width="500" height="190" as="geometry" />
        </mxCell>
      </root>
    </mxGraphModel>
  </diagram>
</mxfile>
